<svg width="80" height="80" viewBox="0 0 80 80" fill="none" xmlns="http://www.w3.org/2000/svg">
<path d="M40 3.17505L12.8 8.27505V29.3688C12.8 30.6063 13.05 59.925 39.1438 76.55L40 77.1L40.8625 76.55C66.9 59.8438 67.2 30.6 67.2 29.3625V8.27505L40 3.17505ZM40 6.42505L64 10.925V14.075L40 9.57505L16 14.075V10.925L40 6.42505ZM40 12.825L64 17.325V21.2438C56.3063 18.625 48.25 17.2813 40 17.2813C29.2688 17.2813 20.9438 19.4563 16 21.1938V17.325L40 12.825ZM40 20.4813C48.2625 20.4813 56.3313 21.8688 64 24.6188V29.3625C64 30.5125 63.7188 57.4375 40 73.2938C16.2313 57.5125 16 30.525 16 29.3625V24.5938C20.5125 22.9 28.9 20.4813 40 20.4813ZM40.8 25.7563C40.4813 26.0813 40.1563 26.5563 40.1563 27.3563C38.2375 27.3563 38.0813 28.4813 37.6 28.8C35.2 29.7625 34.8813 29.1188 34.2438 29.7563C33.9188 30.0813 33.7563 30.4 33.7563 30.7188C33.6 31.5188 33.9188 32.1563 34.8813 32.1563C35.2 32.1563 35.8375 31.6813 36.3188 31.6813C37.1188 31.6813 37.9188 32.4813 39.2 32.4813C39.6813 32.4813 40.1563 32.1625 40.9563 30.8813C40.6375 32.6438 40.1563 33.2813 38.7188 33.2813C38.5563 34.4 37.4375 38.4 36.3188 39.3563C34.4 40.8 33.4375 41.1188 32.3188 41.2813C32.1563 41.4438 31.0438 41.2813 30.8813 41.7563C30.7188 42.2375 30.7188 42.5625 30.8813 43.2C30.8813 43.8375 31.2 44.9563 31.6813 46.5563C31.6813 46.8813 32 47.2 32.1563 47.2C32.4813 47.3625 32.4813 47.5188 32.4813 47.5188C32.6438 49.1188 33.4438 49.9188 33.4438 49.9188C33.4438 49.9188 35.0375 48 34.7188 47.3563C34.5563 47.0375 33.6 46.7188 33.6 46.7188V46.0813C33.4375 45.7625 32.6375 43.5188 32.8 43.5188H35.5188C35.5188 43.5188 37.2813 46.5625 40.6438 48.6438C41.1188 48.1625 41.9188 47.3563 43.2 47.5188C40 47.8375 40 51.3625 40.8 52.8C41.9188 55.0375 41.9188 55.5188 41.7563 56C40.9563 57.2813 40.8 57.4375 40.4813 57.9188C40.3188 58.2375 40.6375 58.4 40.3188 58.5563C38.7188 59.3563 38.4 60.6438 38.4 60.6438C38.4 60.6438 41.1188 60.9625 41.6 60.4813C41.7625 60.3188 41.7563 59.5188 41.7563 59.5188C41.7563 59.5188 42.4 59.6813 42.5563 59.6813C42.7188 59.5188 43.0438 59.5188 43.0438 59.3563C43.0438 59.2 43.3563 58.5625 43.3563 58.4C43.5188 57.7625 44.3188 56.3188 44.8 56C44.8 55.8375 44 54.8813 44 54.4C43.8375 52.3188 45.6 52.4813 47.8438 49.7563C48 49.4375 48.3188 49.6 48.4813 49.6C52.6438 49.6 52.1625 46.2375 52.8 42.5563C51.5188 44 51.5188 43.2 51.5188 43.2C51.3563 41.7625 52.4813 39.3563 52.4813 39.3563C52.4813 39.3563 50.8813 40.3188 50.7188 41.6C50.0813 40.3188 51.2 38.4 51.2 38.4C50.5625 38.7188 49.7563 39.3625 49.7563 41.6C49.7563 47.3625 49.6 47.0375 49.1188 48C48.9563 48.1625 48.4813 48.1625 48.6438 47.6813C48.4813 47.0438 48.8 45.6 44.9563 43.3563C43.2 42.2375 42.2375 40.4813 42.5563 39.6813C43.0375 40.1625 44.1625 40.1563 44.8 40.1563C44.3188 39.8375 43.2 39.0375 42.8813 38.5563C43.3625 38.8813 45.4438 39.3625 46.0813 39.0438C44.9625 38.5625 43.5188 37.4375 43.2 36.8C43.5188 37.1188 45.2813 37.4375 46.0813 37.1188C45.2813 36.8 44 36.1625 43.6813 35.2C44.3188 35.3625 44.8 35.5188 46.4 35.2C45.1188 34.7188 44.1625 33.7563 43.6813 33.1188C44.1625 33.1188 45.7625 33.2813 46.4 33.7563C46.0813 32.8 44.6375 32 43.5188 31.2C43.8375 31.2 45.1188 31.3625 45.7563 31.2C45.1188 30.5625 43.6813 29.9188 43.5188 29.6C44 29.6 44.6375 29.2813 44.9563 28.9563C42.8813 28.9563 42.5563 27.3563 41.7563 27.3563C41.4375 27.2 40.9625 26.0813 40.8 25.7563ZM33.1188 34.0813C32.8 34.0813 29.6 36.9563 29.6 37.1188C29.4375 37.4375 29.4438 37.6 29.4438 37.6C27.8438 38.0813 27.3563 39.0438 27.3563 39.0438C27.3563 39.0438 29.4375 40.3188 29.9188 39.8438C30.2375 39.5188 30.4 38.5563 30.4 38.5563C30.4 38.5563 30.8813 38.5625 31.0438 38.4L31.5188 37.9188C32 37.4375 32.9563 36.6438 32.9563 36.6438C33.2813 36.9625 34.2375 38.2438 34.7188 38.8813C35.0375 38.7188 35.8375 38.0813 36.3188 37.1188C35.2 35.8375 33.9188 34.0813 33.1188 34.0813ZM38.5563 48.1563C38.4 50.7188 38.7188 52.6375 38.4 52.8C36.9625 53.2813 36.1563 52.6375 35.5188 52.8C35.2 52.9625 35.3625 53.2813 35.0438 53.1188C33.2813 52.8 32.3188 53.7563 32.3188 53.7563C32.3188 53.7563 34.2438 56 34.8813 55.8438C35.0438 55.8438 35.6813 55.2 35.6813 55.2C35.6813 55.2 35.8375 55.8375 36.1563 56C36.3188 56 36.6375 56.1625 36.8 56C36.9625 55.8375 37.4375 55.5188 37.6 55.5188C38.0813 55.2 39.8438 54.8813 40.4813 54.8813C40.6438 54.5625 40.8 54.2375 40.6438 53.9188C40.6438 53.9188 39.0438 52.3188 39.8438 49.2813C39.6813 49.1188 38.7188 48.3188 38.5563 48.1563Z" fill="#3A3E47"/>
</svg>
