<svg width="80" height="80" viewBox="0 0 80 80" fill="none" xmlns="http://www.w3.org/2000/svg">
<path d="M40.0001 1.59998C18.8126 1.59998 1.6001 18.8125 1.6001 40C1.6001 61.1875 18.8126 78.4 40.0001 78.4C61.1876 78.4 78.4001 61.1875 78.4001 40C78.4001 18.8125 61.1876 1.59998 40.0001 1.59998ZM40.0001 4.79998C59.4626 4.79998 75.2001 20.5375 75.2001 40C75.2001 59.4562 59.4626 75.2 40.0001 75.2C20.5438 75.2 4.8001 59.4562 4.8001 40C4.8001 20.5375 20.5438 4.79998 40.0001 4.79998ZM37.5501 5.94998L34.2001 6.34998L33.8501 16.45L36.4501 16.05L36.7001 9.29998L39.0501 16.05H40.9501L43.3001 9.29998L43.5501 16.05L46.1501 16.45L45.8001 6.34998L42.4501 5.94998L40.0001 13.05L37.5501 5.94998ZM62.0501 13.7L56.0001 21.7L57.8501 23.4L64.5501 20.35L60.1001 26.2L61.4001 28.4L70.5001 24.2L69.2001 22L63.9501 24.4L67.7001 19.5L66.0501 17.45L60.4501 20.05L63.9501 15.45L62.0501 13.7ZM17.5001 14.9C17.2751 14.9187 17.0188 14.9687 16.8001 15.05C16.3876 15.2062 16.0251 15.4562 15.7501 15.8C15.5938 15.9937 15.4563 16.2062 15.3001 16.4C14.4876 17.4187 13.6626 18.4312 12.8501 19.45C12.1501 20.325 11.4501 21.175 10.7501 22.05C10.7063 22.1062 10.6438 22.1937 10.6001 22.25C10.5938 22.2562 10.6938 22.2937 10.7001 22.3C10.9751 22.5187 11.2813 22.7312 11.5501 22.95C12.5751 23.7687 13.5751 24.5812 14.6001 25.4C15.6126 26.2125 16.6313 27.0375 17.6501 27.85C17.9063 28.0562 18.1938 28.2937 18.4501 28.5C18.4626 28.5125 18.4876 28.5625 18.5001 28.55C18.5501 28.4875 18.6001 28.4125 18.6501 28.35C19.3438 27.4812 20.0563 26.6187 20.7501 25.75C21.5876 24.7062 22.4126 23.6437 23.2501 22.6C23.6813 22.0625 24.1438 21.575 24.3501 20.9C24.4563 20.55 24.4813 20.1562 24.4501 19.8C24.3126 18.8437 23.7376 18.0562 22.8501 17.65C21.9626 17.2437 20.9313 17.3937 20.1501 17.95C20.0876 17.9937 20.0126 18.05 19.9501 18.1C20.0813 17.6562 20.1626 17.2062 20.0501 16.75C19.9438 16.3062 19.6751 15.9187 19.3501 15.6C18.8501 15.1125 18.1813 14.85 17.5001 14.9ZM17.3001 17.45C17.6438 17.425 18.0126 17.5375 18.2501 17.8C18.5063 18.0812 18.5813 18.4812 18.5001 18.85C18.4063 19.175 18.1563 19.3937 17.9501 19.65C17.5376 20.1687 17.1126 20.6812 16.7001 21.2C16.2813 21.7187 15.8626 22.2312 15.4501 22.75C15.0251 22.4125 14.6251 22.0875 14.2001 21.75C14.0376 21.6187 13.8626 21.4812 13.7001 21.35C13.6938 21.3437 13.8876 21.1625 13.9001 21.15C14.6876 20.1687 15.4626 19.1812 16.2501 18.2C16.4563 17.9437 16.6313 17.6312 16.9501 17.5C17.0563 17.4562 17.1876 17.4562 17.3001 17.45ZM40.0001 17.6C27.6501 17.6 17.6001 27.65 17.6001 40C17.6001 52.35 27.6501 62.4 40.0001 62.4C52.3501 62.4 62.4001 52.35 62.4001 40C62.4001 27.65 52.3501 17.6 40.0001 17.6ZM20.8001 19.7C21.2626 19.6875 21.6563 19.9375 21.8501 20.35C22.0188 20.75 21.9688 21.2125 21.7001 21.55C21.4313 21.8875 21.1626 22.2187 20.9001 22.55C20.1688 23.4687 19.4313 24.3812 18.7001 25.3C18.6626 25.2687 18.5876 25.2812 18.5501 25.25C18.3501 25.0875 18.1501 24.9125 17.9501 24.75C17.6063 24.475 17.2938 24.175 16.9501 23.9C17.6126 23.0687 18.2376 22.2812 18.9001 21.45C19.2251 21.0437 19.5751 20.6062 19.9001 20.2C20.1313 19.9125 20.4126 19.7125 20.8001 19.7ZM40.0001 20.8C50.6251 20.8 59.2001 29.375 59.2001 40H40.0001V59.2C29.3751 59.2 20.8001 50.625 20.8001 40H40.0001V20.8Z" fill="#3A3E47"/>
</svg>
