<svg width="81" height="80" viewBox="0 0 81 80" fill="none" xmlns="http://www.w3.org/2000/svg">
<path d="M40.4 19.2C30.4439 19.2 21.414 21.3804 14.7437 25.0187C8.07343 28.657 3.59998 33.9054 3.59998 40C3.59998 46.0945 8.07343 51.3429 14.7437 54.9812C21.414 58.6195 30.4439 60.7999 40.4 60.7999C50.356 60.7999 59.3859 58.6195 66.0562 54.9812C72.7265 51.3429 77.2 46.0945 77.2 40C77.2 33.9054 72.7265 28.657 66.0562 25.0187C59.3859 21.3804 50.356 19.2 40.4 19.2ZM40.4 22.4C49.8844 22.4 58.4554 24.5174 64.525 27.8281C70.5946 31.1388 74 35.4907 74 40C74 44.5092 70.5946 48.8611 64.525 52.1718C58.4554 55.4825 49.8844 57.5999 40.4 57.5999C30.9156 57.5999 22.3446 55.4825 16.275 52.1718C10.2054 48.8611 6.79998 44.5092 6.79998 40C6.79998 35.4907 10.2054 31.1388 16.275 27.8281C22.3446 24.5174 30.9156 22.4 40.4 22.4ZM31.0406 24C30.9702 24 30.9152 24.0408 30.8656 24.0968C30.8496 24.1144 30.8394 24.1323 30.825 24.1531C30.8138 24.1691 30.8002 24.1792 30.7906 24.1968V24.2187C30.685 24.4219 30.6406 24.6906 30.6406 24.6906C30.6406 24.6906 29.3965 28.6131 28.8125 29.7843C28.2285 30.9555 27.805 32.0578 22.925 32.5906C18.5922 33.141 16.3187 33.4875 16.3187 33.4875L12.3156 34.0187C12.3156 34.0187 11.6031 34.0469 11.6031 34.3125C11.6031 34.5781 12.2058 34.579 12.425 34.6062C12.6442 34.6334 16.9187 35.1906 16.9187 35.1906C16.9187 35.1906 23.7502 36.0975 24.4062 36.2031C24.8158 36.2687 25.6769 36.3864 26.4625 36.6312C26.6737 36.6968 26.8706 36.7745 27.0594 36.8593C27.109 36.8817 27.1567 36.9041 27.2031 36.9281C27.3871 37.0209 27.5593 37.1222 27.6937 37.2406C28.4889 37.9318 29.1743 39.4216 29.6687 41.6312C30.1615 43.8408 30.6844 45.7312 30.6844 45.7312C30.6844 45.7312 30.705 45.896 30.7594 46.0625C30.8154 46.2321 30.903 46.4 31.0406 46.4C31.1078 46.4 31.1598 46.3576 31.2062 46.2968C31.2238 46.2728 31.234 46.2381 31.25 46.2093C31.2692 46.1725 31.2918 46.1399 31.3062 46.0999V46.0875C31.3702 45.9035 31.3969 45.7093 31.3969 45.7093C31.3969 45.7093 32.7423 40.5181 33.0719 39.6124C33.1135 39.4956 33.1613 39.3564 33.2125 39.2125C33.2301 39.1661 33.2511 39.1105 33.2687 39.0625C33.3119 38.9473 33.3627 38.8263 33.4187 38.7031C33.4475 38.6375 33.4851 38.5734 33.5187 38.5062C33.5763 38.3926 33.6451 38.2761 33.7187 38.1593C33.7635 38.0889 33.8128 38.0188 33.8656 37.9468C33.9504 37.8316 34.0522 37.7213 34.1594 37.6093C34.7002 37.0413 35.5139 36.5406 36.8531 36.3375C39.8419 35.8846 45.4094 35.2718 45.4094 35.2718C45.4094 35.2718 47.8754 34.9818 50.0562 34.825C50.2258 34.8122 50.3946 34.8002 50.5594 34.7906C50.6282 34.7858 50.6984 34.7813 50.7656 34.7781C50.9912 34.7653 51.2076 34.7548 51.4156 34.7468C51.478 34.7436 51.5361 34.7422 51.5969 34.7406C51.7537 34.7358 51.9061 34.7297 52.0469 34.7281C52.1029 34.7281 52.1581 34.7281 52.2094 34.7281C52.3902 34.7281 52.5607 34.7326 52.7031 34.7406C54.5655 34.8478 56.6502 35.1106 57.1719 35.1906C57.2839 35.2082 57.4156 35.2306 57.55 35.2562C57.59 35.2642 57.6334 35.2779 57.675 35.2875C57.7806 35.3115 57.8897 35.3458 57.9969 35.3874C58.048 35.4067 58.0973 35.4291 58.1469 35.4531C58.2541 35.5059 58.3524 35.5762 58.45 35.6562C58.4868 35.6866 58.5273 35.7116 58.5625 35.7468C58.5641 35.7484 58.5655 35.7515 58.5687 35.7531C58.6967 35.8827 58.8136 36.0388 58.9 36.2468C59.2648 37.1348 59.6656 38.8031 59.6656 38.8031C59.6656 38.8031 59.7937 39.3156 59.9937 39.3156C60.1953 39.3156 60.3218 38.8374 60.3218 38.8375C60.3218 38.8375 60.9277 36.8136 61.1469 36.2999C61.2157 36.1399 61.3092 35.9845 61.45 35.8437C61.4676 35.8261 61.4839 35.8082 61.5031 35.7906C61.5767 35.7234 61.6601 35.6623 61.7625 35.6031C61.7705 35.5983 61.7826 35.5922 61.7906 35.5875C61.8866 35.5331 61.9986 35.4854 62.1219 35.4375C62.1651 35.4214 62.213 35.405 62.2593 35.3906C62.3666 35.3554 62.486 35.321 62.6156 35.2906C62.67 35.2778 62.722 35.2643 62.7812 35.2531C62.9748 35.2131 63.1864 35.1756 63.4312 35.1468C65.0584 34.9516 66.775 34.5968 66.775 34.5968C66.775 34.5968 67.2038 34.5825 67.4406 34.4625H67.45C67.4532 34.4609 67.4562 34.4578 67.4594 34.4562C67.4658 34.453 67.4702 34.45 67.475 34.4468C67.5502 34.4036 67.6 34.3501 67.6 34.2781C67.6 34.2093 67.547 34.1557 67.475 34.1125C67.4638 34.1061 67.455 34.1001 67.4406 34.0937C67.3654 34.0569 67.2756 34.0317 67.1812 34.0125C67.1572 34.0077 67.1396 34.0016 67.1156 33.9968C67.0948 33.9936 67.0708 33.989 67.05 33.9875H67.0312C66.8664 33.9666 66.7187 33.9593 66.7187 33.9593L62.9906 33.3718C62.9906 33.3718 62.9462 33.3673 62.9062 33.3625C62.8902 33.3609 62.8645 33.3563 62.8437 33.3531C62.8021 33.3467 62.7481 33.3362 62.6937 33.325C62.6105 33.309 62.5134 33.2881 62.4094 33.2593C62.3758 33.2497 62.3414 33.2424 62.3062 33.2312C62.031 33.148 61.7308 33.008 61.4844 32.7968C61.454 32.7712 61.4225 32.7444 61.3937 32.7156C61.2769 32.5988 61.1734 32.4678 61.1094 32.3062C60.7254 31.3478 60.3218 30.3 60.3218 30.3C60.3218 30.3 60.2879 30.1201 60.2031 29.9937V29.9812C60.1999 29.9764 60.1907 29.9766 60.1875 29.9718C60.1459 29.9158 60.0984 29.875 60.0312 29.875C59.972 29.875 59.9213 29.9128 59.8781 29.9656L59.875 29.9687V29.975C59.7614 30.1238 59.7 30.3875 59.7 30.3875C59.7 30.3875 59.2628 31.8622 58.9156 32.3406C58.5684 32.8206 58.1495 33.2973 56.3031 33.475C55.8551 33.5182 55.466 33.5615 55.1156 33.6031C54.7956 33.6415 54.5201 33.6757 54.2625 33.7093C54.0657 33.7349 53.9132 33.7542 53.7469 33.775C53.6572 33.7861 53.5676 33.7966 53.4812 33.8062C53.4572 33.8094 53.4271 33.8124 53.4031 33.8156C53.1647 33.8412 52.9498 33.8577 52.7562 33.8625C52.025 33.8801 50.5064 33.8814 49.3 33.7406C48.0952 33.5982 40.2906 32.675 40.2906 32.675C40.2906 32.675 40.2373 32.6689 40.1781 32.6625C40.1621 32.6609 40.1348 32.6563 40.1156 32.6531C40.0548 32.6467 39.9724 32.6393 39.8843 32.6281C39.8332 32.6217 39.7779 32.6157 39.7187 32.6093C39.6291 32.5981 39.5259 32.5846 39.4219 32.5718C39.3354 32.5606 39.2413 32.5503 39.1469 32.5375C38.9853 32.5166 38.8182 32.4927 38.6406 32.4687C38.5974 32.4623 38.5526 32.4564 38.5093 32.45C38.351 32.4276 38.1897 32.4037 38.0281 32.3781C37.9657 32.3685 37.903 32.3596 37.8406 32.35C37.6374 32.318 37.4373 32.2867 37.2469 32.2531C37.2341 32.2515 37.2222 32.2484 37.2094 32.2468C37.0317 32.2148 36.8661 32.1836 36.7125 32.15C36.6709 32.1404 36.629 32.1314 36.5906 32.1218C36.4322 32.0866 36.2901 32.0508 36.1781 32.0156C35.1925 31.6956 33.7448 31.6404 32.6312 28.25C31.516 24.8596 31.4437 24.6124 31.4437 24.6124C31.4437 24.6124 31.4038 24.3901 31.3062 24.2093V24.1875C31.2934 24.1651 31.2738 24.1489 31.2594 24.1281C31.2466 24.1105 31.2363 24.0956 31.2219 24.0812C31.1707 24.038 31.1126 24 31.0406 24ZM50.3 38.4C50.1704 38.4 49.9284 38.9375 49.7812 39.4031C49.6324 39.8687 49.2431 41.2466 48.6687 41.5875C48.0943 41.9266 47.131 42.1259 45.4094 42.2874C45.4094 42.2874 42.8006 42.4822 42.175 42.7718C42.167 42.775 42.158 42.7765 42.15 42.7781C42.054 42.8197 41.9968 42.8645 42 42.9093C42.0032 42.9557 42.0573 43.002 42.1437 43.0468C42.1709 43.0596 42.2133 43.0715 42.2469 43.0843C42.3204 43.1131 42.396 43.1415 42.4969 43.1687C42.5065 43.1719 42.5091 43.1749 42.5187 43.1781H42.5281C43.3633 43.3973 44.9358 43.5506 45.275 43.5906C45.5646 43.6242 46.3773 43.7131 47.0781 43.8187C47.2605 43.8459 47.4291 43.8743 47.5844 43.9031C47.6276 43.9111 47.6693 43.917 47.7094 43.9249C47.8598 43.9553 47.9964 43.9883 48.0844 44.0187C48.6044 44.1979 48.9561 44.3401 49.1625 44.8937C49.3657 45.4473 49.8687 47.0875 49.8687 47.0875C49.8687 47.0875 49.9797 47.4843 50.1125 47.7531V47.7687C50.1221 47.7879 50.131 47.798 50.1406 47.8156C50.147 47.8268 50.153 47.845 50.1594 47.8562C50.1642 47.8642 50.1702 47.8638 50.175 47.8718C50.2214 47.9422 50.2646 47.9905 50.3094 47.9937C50.311 47.9937 50.314 48 50.3156 48C50.346 48 50.3773 47.9742 50.4094 47.9375C50.419 47.9262 50.4279 47.9112 50.4375 47.8968L50.4531 47.8781C50.4691 47.8509 50.4871 47.8194 50.5031 47.7874C50.5095 47.7762 50.5139 47.769 50.5187 47.7562V47.75C50.6531 47.4635 50.7625 47.0343 50.7625 47.0343C50.7625 47.0343 51.2647 44.9806 51.6375 44.6062C52.0103 44.2318 52.0643 44.0886 53.7219 43.8375C55.0051 43.6439 56.2776 43.4301 57.3656 43.3437V43.3312C57.6648 43.3088 57.9609 43.289 58.2281 43.2906C59.1097 43.2922 59.8097 43.3586 61.4594 43.5875C62.789 43.7714 63.2243 44.0097 63.5187 44.6624C63.5907 44.8193 63.6547 44.995 63.7187 45.2062C63.8739 45.715 64.0158 46.1453 64.1406 46.4749V46.4781C64.1438 46.4845 64.1453 46.4873 64.1469 46.4937C64.1996 46.6313 64.2473 46.7337 64.2937 46.8249C64.3097 46.8569 64.3293 46.9025 64.3437 46.9281C64.4013 47.0273 64.4521 47.0875 64.4969 47.0875C64.6649 47.0875 64.7023 46.8568 64.8687 46.3656C64.9407 46.06 65.0109 45.8069 65.0781 45.5781C65.0925 45.5285 65.1059 45.4839 65.1219 45.4375C65.1667 45.2999 65.2099 45.1869 65.2531 45.0749C65.3027 44.9501 65.3519 44.8272 65.4031 44.7312C65.4207 44.696 65.4386 44.6632 65.4562 44.6312C65.5266 44.508 65.5998 44.4004 65.675 44.3156L65.6781 44.3093C65.7549 44.2213 65.8371 44.1546 65.9219 44.0906C65.9443 44.073 65.9697 44.0534 65.9937 44.0374C66.0769 43.9798 66.1634 43.9247 66.2593 43.8687C66.8514 43.5167 69.7969 43.2031 69.7969 43.2031C69.7969 43.2031 70.0393 43.1776 70.2937 43.1312H70.2969C70.3049 43.1296 70.3139 43.1266 70.3219 43.125C70.357 43.1185 70.3929 43.1111 70.4281 43.1031C70.4601 43.0967 70.4915 43.0907 70.5219 43.0843C70.5635 43.0747 70.6007 43.0611 70.6375 43.0499C70.6599 43.0436 70.6854 43.0345 70.7062 43.0281C70.743 43.0137 70.7697 43.0003 70.7969 42.9843C70.8097 42.9763 70.8294 42.9689 70.8406 42.9625C70.8726 42.9353 70.8906 42.9115 70.8906 42.8843C70.8906 42.8363 70.8725 42.7961 70.8437 42.7624C70.8357 42.7528 70.8221 42.7454 70.8125 42.7374C70.7821 42.7118 70.7388 42.6864 70.6843 42.6656C70.6684 42.6592 70.6551 42.6532 70.6375 42.6468C70.5655 42.6228 70.4823 42.602 70.3718 42.5812H70.3625C70.2169 42.554 70.0443 42.5256 69.8187 42.4968C69.0027 42.3912 67.4281 42.0393 66.4281 41.8281C65.4265 41.6169 65.1281 40.4062 65.1281 40.4062C65.1281 40.4062 64.8866 39.6671 64.6562 39.3343V39.3281C64.6354 39.2977 64.6145 39.2786 64.5937 39.2562C64.5825 39.245 64.5737 39.2314 64.5625 39.2218C64.5273 39.1914 64.4929 39.1717 64.4625 39.1749C64.4081 39.1782 64.3499 39.2369 64.2875 39.3249C64.2827 39.3314 64.2798 39.3311 64.275 39.3375V39.3437C64.0446 39.6861 63.7736 40.4906 63.5 41.0906C63.1496 41.8634 62.0357 42.0369 61.4437 42.125C60.8501 42.2129 59.9075 42.4616 58.3875 42.4968C56.8691 42.532 55.4312 42.2687 55.4312 42.2687C54.228 42.1247 53.1164 42.0693 52.2844 41.7125C51.4492 41.354 51.024 40.1714 50.8 39.4562C50.5792 38.7378 50.4312 38.4 50.3 38.4ZM40.5 46.4C40.4664 46.4 40.4214 46.4437 40.375 46.5093L40.3719 46.5124V46.5156C40.2471 46.6964 40.0962 47.0655 39.9906 47.4031C39.845 47.8687 39.4616 49.2466 38.9 49.5875C38.3368 49.9266 37.3927 50.1227 35.7031 50.2843C35.7031 50.2843 33.8232 50.4275 32.9 50.65H32.8969C32.7753 50.6803 32.6863 50.7101 32.6031 50.7437C32.5839 50.7517 32.5504 50.7592 32.5344 50.7656C32.4464 50.8072 32.3937 50.8505 32.3969 50.8937C32.3985 50.9385 32.4451 50.9802 32.5219 51.0218C32.5779 51.0522 32.6682 51.0805 32.7562 51.1093C32.7882 51.1205 32.8085 51.1341 32.8437 51.1437C32.8485 51.1453 32.8514 51.1468 32.8562 51.1468H32.8594C33.6594 51.374 35.2561 51.5318 35.5937 51.5718C35.8769 51.6054 36.6699 51.6912 37.3531 51.7968C37.5323 51.824 37.6964 51.8555 37.85 51.8843C37.8932 51.8923 37.9319 51.8982 37.9719 51.9062C38.1191 51.9366 38.2511 51.9696 38.3375 52C38.8463 52.1791 39.1906 52.3229 39.3906 52.8781C39.589 53.4333 40.0812 55.0812 40.0812 55.0812C40.0812 55.0812 40.186 55.4795 40.3156 55.75V55.7656C40.3252 55.7848 40.3372 55.7948 40.3469 55.8125C40.3581 55.8316 40.3669 55.848 40.3781 55.8656C40.4245 55.944 40.4708 56 40.5156 56C40.546 56 40.579 55.9743 40.6094 55.9375C40.6189 55.9263 40.6279 55.9112 40.6375 55.8968C40.6583 55.8648 40.6808 55.8275 40.7 55.7843C40.7048 55.7747 40.7092 55.7674 40.7156 55.7562V55.7531C40.8452 55.4667 40.9531 55.0312 40.9531 55.0312C40.9531 55.0312 41.443 52.9728 41.8062 52.5968C42.1694 52.2208 42.2246 52.0777 43.8406 51.8281C44.3414 51.7497 44.8308 51.672 45.3156 51.5968C45.4756 51.5728 45.6322 51.5473 45.7906 51.5249C46.2242 51.4609 46.6328 51.4165 47.0312 51.375C47.468 51.3302 47.8974 51.2906 48.2719 51.2906C49.4895 51.2906 49.7247 51.3072 50.4687 51.3968C51.2143 51.4864 52.8117 51.686 53.4468 51.8812C54.0837 52.078 54.2993 52.5247 54.4625 52.9375C54.6257 53.3486 54.9906 54.4406 54.9906 54.4406C54.9906 54.4406 55.0824 54.8906 55.3 54.8906C55.3656 54.8906 55.4162 54.8404 55.4594 54.7812C55.4802 54.754 55.498 54.7226 55.5156 54.6875C55.5268 54.665 55.5357 54.6505 55.5437 54.6281C55.6285 54.4393 55.6777 54.2393 55.6937 54.1593C55.8681 53.6441 56.2645 52.5317 56.5125 52.3125C56.8405 52.0261 57.0793 51.7561 58.6937 51.5593C60.3097 51.3609 61.2712 51.1633 61.8344 51.1281C62.0408 51.1153 62.2152 51.0959 62.3656 51.0687L62.3843 51.0718C62.402 51.0686 62.4105 51.0594 62.4281 51.0562C62.5049 51.0402 62.5706 51.0223 62.625 50.9999C62.6506 50.9903 62.6777 50.9799 62.6968 50.9687C62.7593 50.9335 62.8 50.8918 62.8 50.8406C62.8 50.7878 62.7699 50.7477 62.7219 50.7093C62.7075 50.6981 62.6817 50.6877 62.6625 50.6781C62.6129 50.6509 62.5412 50.6255 62.45 50.6031C62.4292 50.5983 62.4255 50.5891 62.4031 50.5843H62.3843C62.234 50.5507 62.0484 50.5211 61.7812 50.4843C61.1076 50.3947 59.3242 50.2004 58.025 49.9812C57.7834 49.9396 57.5468 49.8978 57.35 49.8562C56.0988 49.589 56.0261 48.6035 55.8437 48.1187C55.7125 47.7699 55.6099 47.2777 55.4531 47.0281V47.0187C55.4515 47.0155 55.4485 47.0156 55.4468 47.0124C55.3893 46.9228 55.3237 46.8624 55.2469 46.8624C55.1813 46.8624 55.1308 46.8974 55.0844 46.9406C55.0667 46.9566 55.0519 46.9745 55.0375 46.9937C55.0263 47.0097 55.0143 47.0198 55.0031 47.0374V47.0531C54.9103 47.2195 54.8617 47.4445 54.8281 47.5437C54.7737 47.7053 54.4863 48.7264 54.2687 49.0656C54.0495 49.4064 53.884 49.7821 53.0312 49.9437C52.1784 50.1053 50.5822 50.4444 49.075 50.4812C48.7326 50.4892 48.4301 50.4891 48.1437 50.4843C48.0861 50.4827 48.0279 50.4828 47.9719 50.4812C47.6951 50.4732 47.4324 50.4598 47.1844 50.4406C47.1732 50.4406 47.1658 50.439 47.1562 50.4374C46.6154 50.3974 46.112 50.336 45.5312 50.2656C44.352 50.1216 43.2613 50.0677 42.4437 49.7093C41.6261 49.3509 41.2082 48.1699 40.9906 47.4531C40.8354 46.9411 40.7211 46.633 40.6187 46.4906V46.4843C40.6171 46.4811 40.6141 46.4813 40.6125 46.4781C40.5709 46.4301 40.5352 46.4 40.5 46.4Z" fill="#3A3E47"/>
</svg>
