<svg width="145" height="40" viewBox="0 0 145 40" fill="none" xmlns="http://www.w3.org/2000/svg">
<path d="M48.0449 30.391C47.8566 30.5806 47.7102 30.8071 47.615 31.0562C47.5197 31.3052 47.4778 31.5712 47.4917 31.8373C47.4782 32.1026 47.5195 32.3678 47.6132 32.6165C47.7068 32.8653 47.8507 33.0923 48.0359 33.2836C48.2199 33.4642 48.439 33.6054 48.6799 33.6985C48.9209 33.7916 49.1784 33.8346 49.4367 33.8248C49.7481 33.8269 50.0551 33.7506 50.3289 33.603C50.6135 33.4501 50.851 33.2232 51.0159 32.9464L52.1668 33.6119C51.9281 34.0795 51.5514 34.4634 51.0873 34.7121C50.5788 34.9782 50.0111 35.1125 49.4367 35.1025C48.8166 35.1108 48.2039 34.9676 47.6523 34.6855C47.1421 34.4182 46.716 34.016 46.4211 33.5232C46.1238 33.0113 45.9726 32.4283 45.9839 31.8373C45.9715 31.2489 46.1228 30.6686 46.4211 30.1603C46.7175 29.6686 47.1432 29.2668 47.6523 28.9979C48.204 28.7162 48.8166 28.5731 49.4367 28.5809C50.013 28.5705 50.583 28.7016 51.0962 28.9625C51.5599 29.2089 51.9343 29.5937 52.1668 30.0627L51.0159 30.7282C50.8522 30.4482 50.6147 30.218 50.3289 30.0627C50.0528 29.922 49.7469 29.849 49.4367 29.8498C49.1798 29.8407 48.9238 29.8841 48.6845 29.9771C48.4451 30.0702 48.2274 30.2111 48.0449 30.391ZM58.1356 28.6164H52.7021V29.3262C52.7066 29.4731 52.7673 29.6127 52.8717 29.7166C52.9762 29.8205 53.1166 29.8808 53.2642 29.8852H54.9594V34.1531C54.9617 34.3721 55.0495 34.5816 55.2044 34.7373C55.3593 34.893 55.569 34.9826 55.7891 34.9872H56.4583V29.9207H58.6888V29.2109C58.6898 29.0845 58.6455 28.9618 58.5639 28.8649C58.5127 28.8002 58.4477 28.7476 58.3737 28.7108C58.2997 28.6739 58.2184 28.6538 58.1356 28.6519V28.6164ZM64.6933 28.6164L62.668 33.328L60.6516 28.6519H59.0992L61.8918 35.0404L61.7847 35.2889C61.6796 35.5485 61.5182 35.7818 61.3118 35.9721C61.1208 36.1115 60.8884 36.1833 60.6516 36.1762C60.4491 36.1734 60.249 36.1312 60.0628 36.052C59.875 35.9774 59.7026 35.8691 59.5542 35.7325L58.9564 36.8328C59.1804 37.0251 59.4415 37.1701 59.7237 37.2587C60.0278 37.3641 60.3475 37.4181 60.6695 37.4184C61.1845 37.4326 61.6907 37.2834 62.1148 36.9925C62.5934 36.6129 62.9526 36.1048 63.1498 35.5285L66.1476 28.6519L64.6933 28.6164ZM73.4547 34.2774V36.398H72.8837C72.768 36.3993 72.6533 36.3762 72.5472 36.3304C72.4411 36.2845 72.346 36.2168 72.268 36.1318C72.1338 35.9757 72.0581 35.7782 72.0539 35.5728V34.9872H67.1111V36.398H66.558C66.3484 36.3959 66.1462 36.3205 65.987 36.1851C65.821 36.0234 65.725 35.8038 65.7193 35.5728V33.7539H66.0227C66.4331 33.7539 66.7096 33.4788 66.8524 32.973C67.0305 32.2824 67.1293 31.574 67.1468 30.8613L67.236 28.6785H71.697C71.912 28.6834 72.1179 28.7653 72.277 28.9092C72.4375 29.0701 72.5301 29.286 72.5357 29.5126V33.7805H72.9193C73.0661 33.7807 73.207 33.838 73.3119 33.9402C73.4047 34.0423 73.4556 34.1752 73.4547 34.3129V34.2774ZM71.01 29.8409H68.5476V30.8613C68.5323 31.4564 68.4727 32.0495 68.3691 32.6359C68.3183 33.0173 68.15 33.3738 67.8873 33.6563H71.0457L71.01 29.8409ZM80.1015 30.1514C80.3822 30.6816 80.5234 31.2737 80.5119 31.8728C80.5119 31.9793 80.5119 32.1212 80.5119 32.3164H75.4443C75.4786 32.5375 75.5571 32.7496 75.675 32.94C75.793 33.1305 75.9481 33.2956 76.1313 33.4256C76.5332 33.7127 77.0195 33.8594 77.5142 33.8426C77.8439 33.8596 78.1736 33.8068 78.4812 33.6874C78.7889 33.5681 79.0675 33.3851 79.2986 33.1505L80.1015 34.0378C79.8094 34.3855 79.4311 34.6516 79.0041 34.8097C78.5326 34.9937 78.0295 35.0842 77.5231 35.0759C76.8729 35.1008 76.2265 34.9668 75.6405 34.6855C75.115 34.4301 74.6773 34.0256 74.3825 33.5232C74.0852 33.0113 73.9341 32.4283 73.9454 31.8373C73.9379 31.2517 74.0823 30.6742 74.3647 30.1603C74.6442 29.6709 75.0551 29.2685 75.5513 28.9979C76.0713 28.7172 76.6549 28.5736 77.2465 28.5809C77.8326 28.5722 78.4108 28.716 78.9238 28.9979C79.4212 29.2598 79.8307 29.6608 80.1015 30.1514ZM79.0844 31.3227C79.0325 30.8908 78.823 30.493 78.4956 30.2047C78.1489 29.9319 77.7198 29.7835 77.2777 29.7835C76.8357 29.7835 76.4066 29.9319 76.0599 30.2047C75.7239 30.4923 75.5076 30.894 75.4532 31.3315L79.0844 31.3227ZM94.2518 28.6608H88.8183V29.3706C88.8228 29.5175 88.8834 29.6571 88.9879 29.7609C89.0924 29.8648 89.2327 29.9252 89.3804 29.9296H91.0756V34.4726C91.0758 34.6186 91.1334 34.7587 91.2362 34.863C91.2864 34.9164 91.3472 34.9589 91.4148 34.9879C91.4823 35.017 91.5552 35.0318 91.6287 35.0316H92.5923V29.9207H94.8317V29.2109C94.8317 29.0626 94.7725 28.9205 94.6671 28.8156C94.5617 28.7108 94.4187 28.6519 94.2696 28.6519L94.2518 28.6608ZM101.55 30.1692C101.848 30.6775 102 31.2578 101.987 31.8462C101.986 32.4376 101.823 33.0174 101.514 33.5232C101.227 34.0159 100.807 34.4186 100.301 34.6855C99.7504 34.9704 99.137 35.1137 98.5165 35.1025C97.8958 35.116 97.2818 34.9725 96.7321 34.6855C96.2574 34.4078 95.8685 34.0057 95.6079 33.5232C95.3106 33.0113 95.1595 32.4283 95.1708 31.8373C95.1584 31.2489 95.3097 30.6686 95.6079 30.1603C95.8951 29.6676 96.3155 29.2649 96.8213 28.9979C97.371 28.7109 97.985 28.5675 98.6057 28.5809C99.2262 28.5698 99.8396 28.7131 100.39 28.9979C100.861 29.2802 101.249 29.6812 101.514 30.1603L101.55 30.1692ZM100.479 31.8462C100.491 31.5811 100.448 31.3165 100.355 31.068C100.261 30.8196 100.119 30.5924 99.9351 30.3999C99.7593 30.2184 99.5466 30.0763 99.3112 29.983C99.0758 29.8897 98.8232 29.8473 98.57 29.8586C98.3184 29.8486 98.0674 29.8916 97.8337 29.9849C97.6 30.0781 97.3887 30.2196 97.2139 30.3999C97.0332 30.5939 96.8928 30.8216 96.8009 31.0698C96.7091 31.3181 96.6675 31.5819 96.6786 31.8462C96.6667 32.1092 96.7079 32.3719 96.7999 32.6188C96.8918 32.8657 97.0326 33.0917 97.2139 33.2836C97.3879 33.4655 97.5988 33.6086 97.8326 33.7034C98.0664 33.7982 98.3177 33.8426 98.57 33.8337C98.8238 33.8439 99.0769 33.8001 99.3123 33.7053C99.5477 33.6104 99.76 33.4666 99.9351 33.2836C100.12 33.0923 100.264 32.8653 100.358 32.6165C100.451 32.3678 100.493 32.1026 100.479 31.8373V31.8462ZM109.027 33.2392C109.039 33.4954 108.987 33.7507 108.875 33.9816C108.762 34.2126 108.594 34.4118 108.384 34.5613C107.809 34.9124 107.139 35.0767 106.466 35.0316H104.039C103.818 35.0292 103.607 34.9403 103.452 34.7842C103.297 34.628 103.209 34.4172 103.209 34.1975V28.6519H106.332C106.974 28.6151 107.613 28.7663 108.17 29.0867C108.378 29.2134 108.549 29.3925 108.665 29.606C108.781 29.8195 108.838 30.0597 108.83 30.3023C108.845 30.6183 108.754 30.9302 108.572 31.1896C108.383 31.4383 108.13 31.6315 107.84 31.7486C108.181 31.8173 108.488 32.0036 108.705 32.2746C108.922 32.5456 109.036 32.884 109.027 33.2304V33.2392ZM104.628 31.3227H106.198C106.975 31.3227 107.367 31.0565 107.367 30.5241C107.367 29.9917 106.975 29.7521 106.198 29.7521H104.628V31.3227ZM107.581 33.1416C107.589 33.0227 107.567 32.9036 107.517 32.7952C107.468 32.6868 107.391 32.5924 107.296 32.5205C107.027 32.3602 106.716 32.2858 106.404 32.3076H104.619V33.9402H106.341C107.168 33.9343 107.581 33.6651 107.581 33.1327V33.1416ZM135.721 26.6821H129.172V27.4452C129.173 27.5912 129.23 27.7313 129.333 27.8356C129.441 27.9383 129.585 27.9955 129.735 27.9953H131.938V34.4726C131.943 34.6194 132.003 34.759 132.108 34.8629C132.212 34.9668 132.353 35.0271 132.5 35.0316H133.491V27.9864H136.31V27.2322C136.31 27.0862 136.252 26.9461 136.149 26.8418C136.094 26.7857 136.027 26.7417 135.953 26.7127C135.879 26.6836 135.8 26.6702 135.721 26.6732V26.6821ZM143.465 26.6821L140.914 31.58L138.433 26.6821H136.765L140.111 32.8932L139.977 33.0973C139.859 33.3276 139.681 33.5218 139.461 33.6593C139.241 33.7968 138.988 33.8724 138.728 33.8781C138.451 33.866 138.177 33.8122 137.916 33.7184L137.532 34.934C137.923 35.1074 138.345 35.198 138.772 35.2001C139.287 35.2017 139.789 35.0435 140.209 34.7476C140.698 34.4027 141.094 33.9423 141.36 33.4078L145 26.6732L143.465 26.6821ZM87.141 28.6519H86.4718V31.2428H84.6071C84.3535 31.2361 84.1013 31.2833 83.8675 31.3813C83.6336 31.4792 83.4234 31.6256 83.251 31.8107V28.6519H81.7521V34.1886C81.7532 34.4005 81.8363 34.6039 81.9841 34.7565C82.0617 34.8396 82.1555 34.906 82.2598 34.9518C82.3642 34.9975 82.4768 35.0217 82.5908 35.0227H83.251V33.6296C83.251 32.9109 83.6703 32.5028 84.6071 32.5028H86.4718V35.0227H87.9707V29.486C87.9714 29.3731 87.9487 29.2614 87.9042 29.1576C87.8597 29.0538 87.7943 28.9602 87.712 28.8826C87.5595 28.734 87.3544 28.6512 87.141 28.6519ZM120.714 26.6732H119.992V30.1248H117.315C117.001 30.126 116.692 30.1958 116.408 30.3291C116.124 30.4625 115.874 30.6563 115.673 30.8968V26.6732H114.121V34.1886C114.121 34.4083 114.208 34.6191 114.364 34.7753C114.519 34.9315 114.73 35.0204 114.951 35.0227H115.673V32.9997C115.702 32.5836 115.887 32.1934 116.191 31.906C116.495 31.6186 116.896 31.4548 117.315 31.4469H119.992V34.9961H121.553V27.5073C121.553 27.2861 121.465 27.0739 121.307 26.9175C121.15 26.7611 120.937 26.6732 120.714 26.6732ZM123.007 29.1577V34.1886C123.007 34.4083 123.094 34.6191 123.25 34.7753C123.405 34.9315 123.616 35.0204 123.837 35.0227H124.542V29.1577C124.542 28.9891 124.579 28.8226 124.65 28.6694C124.721 28.5163 124.824 28.3802 124.952 28.2704C125.169 28.0876 125.444 27.987 125.729 27.9864H128.7V26.6732H125.711C124.992 26.6701 124.3 26.9399 123.775 27.4274C123.535 27.6483 123.343 27.9158 123.211 28.2134C123.079 28.511 123.009 28.8324 123.007 29.1577ZM72.3929 17.3477H73.8562V23.7097H73.2584C73.0434 23.7048 72.8375 23.6228 72.6784 23.479C72.5999 23.4026 72.5374 23.3116 72.4945 23.2111C72.4516 23.1105 72.4292 23.0025 72.4286 22.8933C72.1922 23.1883 71.8855 23.4201 71.5364 23.5677C71.1543 23.7233 70.7449 23.8017 70.332 23.7984C69.7467 23.8098 69.1685 23.6691 68.6546 23.3902C68.1674 23.1278 67.7675 22.7301 67.5037 22.2456C67.234 21.7146 67.0934 21.128 67.0934 20.5331C67.0934 19.9382 67.234 19.3516 67.5037 18.8207C67.7705 18.3406 68.1699 17.9465 68.6546 17.6849C69.1685 17.406 69.7467 17.2653 70.332 17.2768C70.723 17.2728 71.111 17.3451 71.474 17.4897C71.8172 17.6308 72.1227 17.8496 72.3662 18.1286L72.3929 17.3477ZM72.3929 20.5331C72.404 20.2689 72.3625 20.005 72.2706 19.7568C72.1787 19.5086 72.0384 19.2809 71.8576 19.0868C71.6795 18.9085 71.4664 18.7685 71.2316 18.6754C70.9968 18.5823 70.7452 18.5381 70.4926 18.5456C70.2394 18.5342 69.9868 18.5766 69.7514 18.67C69.516 18.7633 69.3033 18.9054 69.1275 19.0868C68.9468 19.2809 68.8064 19.5086 68.7146 19.7568C68.6227 20.005 68.5811 20.2689 68.5922 20.5331C68.5803 20.7961 68.6215 21.0589 68.7135 21.3058C68.8054 21.5526 68.9462 21.7787 69.1275 21.9706C69.3026 22.1536 69.5149 22.2974 69.7503 22.3922C69.9857 22.4871 70.2388 22.5309 70.4926 22.5207C70.7494 22.537 71.0068 22.4979 71.2471 22.406C71.4873 22.3141 71.7047 22.1716 71.8844 21.9883C72.0679 21.7943 72.21 21.5654 72.302 21.3153C72.394 21.0652 72.434 20.7991 72.4197 20.5331H72.3929ZM52.7646 20.5331C52.7759 21.1242 52.6247 21.7071 52.3274 22.219C52.0403 22.7117 51.6199 23.1144 51.114 23.3814C50.5635 23.6662 49.9501 23.8096 49.3296 23.7984C48.7089 23.8118 48.0949 23.6684 47.5452 23.3814C47.0377 23.1168 46.6167 22.7135 46.3318 22.219C46.0452 21.7028 45.8948 21.1228 45.8948 20.5331C45.8948 19.9435 46.0452 19.3634 46.3318 18.8473C46.6221 18.3593 47.0419 17.9602 47.5452 17.6938C48.0949 17.4068 48.7089 17.2633 49.3296 17.2768C49.9501 17.2656 50.5635 17.409 51.114 17.6938C51.6157 17.9624 52.035 18.361 52.3274 18.8473C52.6372 19.3556 52.8008 19.9387 52.8003 20.5331H52.7646ZM51.2568 20.5331C51.2682 20.2681 51.2259 20.0035 51.1324 19.755C51.0389 19.5065 50.8961 19.2793 50.7125 19.0868C50.5367 18.9054 50.324 18.7633 50.0886 18.67C49.8533 18.5766 49.6006 18.5342 49.3475 18.5456C49.0958 18.5355 48.8449 18.5785 48.6111 18.6718C48.3774 18.7651 48.1662 18.9066 47.9913 19.0868C47.8106 19.2809 47.6703 19.5086 47.5784 19.7568C47.4865 20.005 47.4449 20.2689 47.456 20.5331C47.4441 20.7961 47.4854 21.0589 47.5773 21.3058C47.6693 21.5526 47.81 21.7787 47.9913 21.9706C48.1654 22.1524 48.3763 22.2955 48.61 22.3904C48.8438 22.4852 49.0952 22.5296 49.3475 22.5207C49.6058 22.5383 49.8649 22.4999 50.1068 22.4079C50.3487 22.316 50.5676 22.1728 50.7482 21.9883C50.9346 21.796 51.0792 21.5675 51.1728 21.3171C51.2665 21.0667 51.3072 20.7999 51.2925 20.5331H51.2568ZM53.7282 20.5331C53.7423 19.9372 53.9147 19.3556 54.2278 18.8473C54.514 18.3569 54.9308 17.9547 55.4323 17.6849C55.9855 17.4083 56.5975 17.2683 57.2167 17.2768C57.837 17.2562 58.4521 17.3968 59.0011 17.6849C59.4925 17.9447 59.896 18.3428 60.1609 18.8295C60.4108 19.3643 60.5183 19.954 60.4732 20.542C60.4849 21.1333 60.3501 21.7184 60.0806 22.2456C59.8308 22.7255 59.4466 23.1231 58.9743 23.3902C58.4705 23.6701 57.9007 23.811 57.3237 23.7984C56.9316 23.8117 56.5413 23.7391 56.1806 23.5858C55.8198 23.4325 55.4973 23.2021 55.236 22.9111V25.99H54.5668C54.441 25.9875 54.3171 25.9585 54.2033 25.905C54.0895 25.8515 53.9884 25.7746 53.9066 25.6795C53.7926 25.5283 53.7301 25.3449 53.7282 25.156V20.5331ZM55.2181 20.5331C55.2097 20.7999 55.2542 21.0658 55.3491 21.3155C55.4441 21.5651 55.5875 21.7938 55.7713 21.9883C55.9453 22.1702 56.1562 22.3133 56.39 22.4081C56.6238 22.5029 56.8751 22.5474 57.1274 22.5384C57.3827 22.5499 57.6375 22.5067 57.8745 22.4118C58.1116 22.3169 58.3254 22.1725 58.5014 21.9883C58.8413 21.5856 59.0276 21.0766 59.0276 20.5509C59.0276 20.0251 58.8413 19.5162 58.5014 19.1135C58.1338 18.7605 57.6428 18.5633 57.1319 18.5633C56.621 18.5633 56.13 18.7605 55.7624 19.1135C55.4193 19.5062 55.2377 20.0131 55.2538 20.5331H55.2181ZM89.6481 23.7097V17.9067C89.6466 17.8261 89.6284 17.7467 89.5946 17.6734C89.5608 17.6001 89.5122 17.5346 89.4518 17.4808C89.3493 17.3952 89.2198 17.3481 89.086 17.3477H88.2741L84.7053 21.5447V17.3477H83.2778V23.1595C83.2809 23.2879 83.3246 23.4121 83.4027 23.5145C83.4566 23.577 83.5237 23.627 83.5993 23.6607C83.6749 23.6945 83.757 23.7112 83.8398 23.7097H84.6607L88.2295 19.5216V23.7097H89.6481ZM96.4734 21.8463C96.4747 21.5206 96.3574 21.2055 96.1433 20.959C95.9011 20.701 95.5925 20.5139 95.2511 20.4178C95.5605 20.3043 95.8323 20.1077 96.0362 19.8499C96.2272 19.6175 96.3284 19.3248 96.3217 19.0247C96.3193 18.6931 96.1882 18.3753 95.9559 18.1374C95.6771 17.8501 95.3306 17.6366 94.9477 17.5163C94.4751 17.3647 93.9811 17.2898 93.4845 17.2945C92.6038 17.2999 91.7352 17.4999 90.9417 17.8801L91.138 18.4391C91.1905 18.5747 91.2924 18.6856 91.4235 18.7497C91.4912 18.7785 91.564 18.7933 91.6377 18.7933C91.7113 18.7933 91.7841 18.7785 91.8518 18.7497C92.333 18.5785 92.8396 18.4885 93.3507 18.4835C93.7158 18.468 94.0794 18.5379 94.4124 18.6876C94.5219 18.7341 94.6159 18.8104 94.6838 18.9077C94.7516 19.005 94.7905 19.1194 94.796 19.2377C94.7967 19.3483 94.7672 19.4571 94.7106 19.5524C94.654 19.6477 94.5726 19.726 94.4748 19.7789C94.1987 19.9168 93.8913 19.981 93.5826 19.9653H92.4585V20.9679H93.7076C94.018 20.9546 94.3263 21.0251 94.5998 21.172C94.7013 21.2281 94.7856 21.3106 94.8437 21.4106C94.9018 21.5106 94.9316 21.6244 94.9299 21.7399C94.9287 21.8762 94.8876 22.0093 94.8115 22.1228C94.7355 22.2363 94.6277 22.3252 94.5016 22.3787C94.1333 22.5483 93.7294 22.6274 93.3239 22.6094C92.927 22.6103 92.5314 22.5627 92.1462 22.4674C91.7781 22.3802 91.4238 22.2429 91.0934 22.0593L90.6652 23.1684C91.0652 23.3921 91.4946 23.5594 91.941 23.6653C92.4168 23.7827 92.9051 23.8422 93.3953 23.8428C93.9328 23.8499 94.4674 23.7628 94.9745 23.5854C95.3915 23.4525 95.7666 23.214 96.063 22.8933C96.3425 22.615 96.5025 22.2397 96.5091 21.8463H96.4734ZM103.433 23.7097C103.323 23.7107 103.215 23.6901 103.114 23.6489C103.013 23.6078 102.921 23.547 102.844 23.4701C102.767 23.395 102.706 23.3052 102.664 23.2061C102.623 23.107 102.602 23.0006 102.603 22.8933C102.366 23.1875 102.059 23.4191 101.711 23.5677C101.328 23.7233 100.919 23.8017 100.506 23.7984C99.9236 23.8099 99.3483 23.6692 98.8377 23.3902C98.3505 23.1278 97.9506 22.7301 97.6868 22.2456C97.4114 21.7163 97.2677 21.1291 97.2677 20.5331C97.2677 19.9372 97.4114 19.3499 97.6868 18.8207C97.9536 18.3406 98.353 17.9465 98.8377 17.6849C99.3483 17.406 99.9236 17.2652 100.506 17.2768C100.897 17.2721 101.285 17.3444 101.648 17.4897C101.99 17.6339 102.295 17.8521 102.54 18.1286V17.3477H104.039V23.7097H103.433ZM102.54 20.5331C102.551 20.2689 102.51 20.005 102.418 19.7568C102.326 19.5086 102.186 19.2809 102.005 19.0868C101.637 18.7386 101.148 18.5443 100.64 18.5443C100.132 18.5443 99.6431 18.7386 99.2749 19.0868C98.9164 19.4822 98.7276 20.0012 98.7485 20.5331C98.7261 21.0626 98.9153 21.5794 99.2749 21.9706C99.641 22.3229 100.13 22.5199 100.64 22.5199C101.149 22.5199 101.639 22.3229 102.005 21.9706C102.194 21.7824 102.343 21.558 102.443 21.3109C102.543 21.0639 102.591 20.7993 102.585 20.5331H102.54ZM112.221 22.4497H111.81V18.1818C111.798 17.9647 111.705 17.7599 111.55 17.6061C111.396 17.4524 111.19 17.3604 110.972 17.3477H110.311V22.4497H107.224V17.3477H105.725V22.8756C105.728 23.0953 105.817 23.3051 105.974 23.4596C106.131 23.6141 106.343 23.7008 106.564 23.7008H111.328V24.3396C111.341 24.5567 111.434 24.7616 111.588 24.9153C111.743 25.0691 111.949 25.161 112.167 25.1737H112.729V23.0087C112.729 22.86 112.672 22.7169 112.569 22.6094C112.475 22.5173 112.352 22.4608 112.221 22.4497ZM115.254 23.7097L118.778 19.5216V23.7097H120.25V17.9067C120.251 17.8322 120.236 17.7584 120.207 17.6898C120.178 17.6212 120.135 17.5591 120.081 17.5075C119.976 17.4053 119.835 17.3479 119.688 17.3477H118.876L115.308 21.5447V17.3477H113.809V23.1595C113.809 23.2327 113.823 23.3051 113.853 23.3723C113.882 23.4395 113.925 23.4999 113.978 23.5499C114.083 23.6521 114.224 23.7094 114.371 23.7097H115.254ZM124.497 17.3477H126.594C126.799 17.3459 126.997 17.4221 127.147 17.5607C127.236 17.6383 127.308 17.7338 127.357 17.8409C127.406 17.9479 127.432 18.0641 127.433 18.1818V23.7097H126.924C126.712 23.7137 126.506 23.634 126.353 23.4878C126.27 23.4106 126.203 23.3173 126.157 23.2136C126.111 23.1098 126.086 22.9979 126.085 22.8845V21.7931H124.399L123.088 23.7097H121.482L122.998 21.589C122.577 21.4618 122.206 21.2075 121.937 20.8614C121.639 20.4075 121.517 19.862 121.593 19.3255C121.668 18.789 121.936 18.2977 122.347 17.9422C122.972 17.5214 123.717 17.3129 124.471 17.3477H124.497ZM124.542 18.5988C123.578 18.5988 123.088 18.9626 123.088 19.6813C123.088 20.4 123.561 20.755 124.497 20.755H126.085V18.5988H124.542ZM80.8242 17.3477H80.1015V19.9386H78.2279C77.9755 19.9352 77.7251 19.983 77.4919 20.0791C77.2587 20.1752 77.0477 20.3176 76.8718 20.4976V17.3477H75.3818V22.8756C75.3818 22.9835 75.4033 23.0904 75.4451 23.1901C75.4869 23.2897 75.5482 23.3801 75.6254 23.456C75.7025 23.5319 75.7941 23.5918 75.8947 23.6323C75.9953 23.6728 76.103 23.6931 76.2116 23.6919H76.8807V22.3255C76.8807 21.6068 77.3 21.1986 78.2368 21.1986H80.1015V23.7097H81.6004V18.1729C81.6004 17.9541 81.513 17.7442 81.3574 17.5894C81.2018 17.4347 80.9907 17.3477 80.7707 17.3477H80.8242ZM61.7579 22.8756C61.7584 23.0663 61.8245 23.251 61.9453 23.3991C62.0269 23.4915 62.127 23.5661 62.2391 23.618C62.3512 23.67 62.473 23.6981 62.5966 23.7008H63.2568V19.6547C63.2557 19.5181 63.2818 19.3825 63.3339 19.256C63.3859 19.1295 63.4628 19.0146 63.5599 18.918C63.6571 18.8214 63.7727 18.7449 63.8998 18.6932C64.027 18.6414 64.1633 18.6154 64.3007 18.6166H66.7186V17.3477H64.3007C63.6486 17.3345 63.0141 17.5585 62.5163 17.9777C62.2688 18.1826 62.0694 18.4389 61.9322 18.7286C61.7951 19.0184 61.7234 19.3345 61.7223 19.6547L61.7579 22.8756ZM55.5126 13.8784V9.24672C55.5015 8.6512 55.6493 8.06339 55.9408 7.54311C56.227 7.05276 56.6438 6.65052 57.1453 6.38075C57.697 6.10005 58.3101 5.95981 58.9297 5.97259C59.55 5.952 60.1651 6.09269 60.7141 6.38075C61.2055 6.64049 61.609 7.03865 61.8739 7.52536C62.1484 8.05366 62.2806 8.64365 62.2576 9.23785C62.2739 9.82961 62.1388 10.4158 61.865 10.9415C61.6152 11.4213 61.231 11.8189 60.7587 12.0861C60.2549 12.3659 59.685 12.5068 59.1081 12.4942C58.716 12.5075 58.3257 12.435 57.965 12.2816C57.6042 12.1283 57.2817 11.898 57.0204 11.6069V14.6858H56.3691C56.2598 14.6869 56.1515 14.6662 56.0504 14.6251C55.9492 14.584 55.8574 14.5232 55.7802 14.4463C55.6288 14.2981 55.5395 14.0984 55.5304 13.8873L55.5126 13.8784ZM57.0025 9.2201C56.9782 9.75095 57.164 10.2701 57.52 10.6664C57.6951 10.8494 57.9074 10.9932 58.1428 11.0881C58.3782 11.1829 58.6313 11.2267 58.8851 11.2165C59.1389 11.2267 59.3919 11.1829 59.6273 11.0881C59.8627 10.9932 60.0751 10.8494 60.2501 10.6664C60.6072 10.2737 60.796 9.75802 60.7765 9.22897C60.8009 8.70237 60.6186 8.18694 60.268 7.79155C60.0945 7.6053 59.8829 7.45823 59.6474 7.36027C59.4119 7.26231 59.158 7.21573 58.9029 7.22368C58.6463 7.21444 58.3907 7.26039 58.1536 7.3584C57.9164 7.4564 57.7034 7.60415 57.5289 7.79155C57.18 8.18789 56.9978 8.70264 57.0204 9.22897L57.0025 9.2201ZM63.471 10.906C63.1843 10.3898 63.034 9.80976 63.034 9.2201C63.034 8.63044 63.1843 8.05041 63.471 7.53424C63.7618 7.04356 64.1853 6.64392 64.6933 6.38075C65.2365 6.10641 65.8372 5.96343 66.4464 5.96343C67.0557 5.96343 67.6564 6.10641 68.1996 6.38075C68.7056 6.64659 69.1285 7.04562 69.4219 7.53424C69.7086 8.05041 69.8589 8.63044 69.8589 9.2201C69.8589 9.80976 69.7086 10.3898 69.4219 10.906C69.129 11.3973 68.7063 11.7993 68.1996 12.0683C67.6564 12.3427 67.0557 12.4856 66.4464 12.4856C65.8372 12.4856 65.2365 12.3427 64.6933 12.0683C64.1927 11.8013 63.7759 11.4022 63.4888 10.9148L63.471 10.906ZM64.5505 9.2201C64.5369 9.48255 64.5765 9.74504 64.667 9.99197C64.7574 10.2389 64.8968 10.4652 65.0769 10.6575C65.443 11.0099 65.9325 11.2069 66.442 11.2069C66.9515 11.2069 67.441 11.0099 67.807 10.6575C67.9883 10.4657 68.1291 10.2396 68.2211 9.99272C68.313 9.74583 68.3543 9.48311 68.3424 9.2201C68.3545 8.95572 68.3133 8.69161 68.2214 8.44325C68.1295 8.19489 67.9886 7.96729 67.807 7.77381C67.441 7.42144 66.9515 7.22444 66.442 7.22444C65.9325 7.22444 65.443 7.42144 65.0769 7.77381C64.899 7.9705 64.7624 8.20052 64.6751 8.4504C64.5878 8.70027 64.5515 8.96497 64.5684 9.22897L64.5505 9.2201ZM82.0822 12.0683C82.6334 12.3514 83.2464 12.4947 83.8666 12.4854C84.4382 12.4953 85.003 12.361 85.5083 12.0949C85.9771 11.8495 86.3576 11.4649 86.5967 10.9947L85.4547 10.3381C85.2898 10.6148 85.0523 10.8418 84.7677 10.9947C84.4938 11.1419 84.1869 11.2182 83.8755 11.2165C83.6187 11.2256 83.3627 11.1822 83.1233 11.0891C82.8839 10.996 82.6663 10.8552 82.4837 10.6753C82.2984 10.484 82.1545 10.257 82.0609 10.0082C81.9673 9.75944 81.926 9.49424 81.9395 9.22897C81.9251 8.96495 81.966 8.70083 82.0597 8.45338C82.1534 8.20593 82.2978 7.98056 82.4837 7.79155C82.6645 7.61113 82.8803 7.46928 83.1181 7.37469C83.3559 7.2801 83.6106 7.23475 83.8666 7.24143C84.1775 7.24406 84.4833 7.32009 84.7588 7.46325C85.0415 7.6227 85.2781 7.85189 85.4458 8.12873L86.5967 7.46325C86.3642 6.99426 85.9898 6.60949 85.5261 6.363C85.0158 6.11515 84.452 5.99629 83.8845 6.01696C83.2641 6.00692 82.651 6.15021 82.1001 6.43399C81.5897 6.69698 81.1632 7.09647 80.8688 7.58747C80.5764 8.10176 80.4227 8.68252 80.4227 9.27334C80.4227 9.86415 80.5764 10.4449 80.8688 10.9592C81.168 11.4374 81.594 11.8243 82.1001 12.0772L82.0822 12.0683ZM87.5246 10.906C87.2286 10.3935 87.0775 9.81099 87.0874 9.2201C87.0762 8.62905 87.2273 8.04614 87.5246 7.53424C87.8146 7.04595 88.2345 6.64678 88.738 6.38075C89.2828 6.10633 89.8849 5.96333 90.4956 5.96333C91.1063 5.96333 91.7085 6.10633 92.2533 6.38075C92.7646 6.64654 93.191 7.04913 93.4845 7.54311C93.7818 8.05502 93.933 8.63792 93.9217 9.22897C93.9316 9.81987 93.7805 10.4024 93.4845 10.9148C93.1948 11.4055 92.775 11.8076 92.2711 12.0772C91.7263 12.3516 91.1242 12.4946 90.5135 12.4946C89.9028 12.4946 89.3007 12.3516 88.7559 12.0772C88.2519 11.8076 87.8322 11.4055 87.5425 10.9148L87.5246 10.906ZM88.5953 9.2201C88.5834 9.48311 88.6246 9.74583 88.7166 9.99272C88.8085 10.2396 88.9493 10.4657 89.1306 10.6575C89.3046 10.8394 89.5155 10.9825 89.7493 11.0773C89.9831 11.1722 90.2344 11.2166 90.4867 11.2076C90.7414 11.2141 90.9947 11.1687 91.231 11.0741C91.4673 10.9795 91.6816 10.8377 91.8607 10.6575C92.042 10.4657 92.1828 10.2396 92.2747 9.99272C92.3667 9.74583 92.4079 9.48311 92.396 9.2201C92.4081 8.95572 92.367 8.69161 92.2751 8.44325C92.1831 8.19489 92.0423 7.96729 91.8607 7.77381C91.6816 7.59364 91.4673 7.45187 91.231 7.35725C90.9947 7.26264 90.7414 7.21718 90.4867 7.22368C90.2344 7.21475 89.9831 7.25916 89.7493 7.35399C89.5155 7.44883 89.3046 7.59192 89.1306 7.77381C88.9511 7.96979 88.8129 8.19949 88.724 8.44939C88.6351 8.6993 88.5974 8.96436 88.6131 9.22897L88.5953 9.2201ZM95.0994 11.5714V6.01696H95.7596C95.8701 6.01577 95.9797 6.03653 96.082 6.07803C96.1843 6.11952 96.2772 6.18091 96.3553 6.2586C96.4334 6.33629 96.4951 6.42871 96.5369 6.53044C96.5786 6.63217 96.5995 6.74116 96.5983 6.85102V8.48364H97.6957C97.7899 7.99873 97.9977 7.54274 98.3024 7.1527C98.6021 6.76989 98.991 6.46537 99.4355 6.2654C99.9192 6.07102 100.44 5.98616 100.961 6.01696C101.558 6.00464 102.148 6.1452 102.674 6.42512C103.172 6.69292 103.584 7.09603 103.861 7.58747C104.158 8.09938 104.309 8.68229 104.298 9.27334C104.308 9.86423 104.157 10.4468 103.861 10.9592C103.581 11.4486 103.17 11.851 102.674 12.1216C102.149 12.4046 101.559 12.5482 100.961 12.5386C100.432 12.5414 99.908 12.4294 99.4265 12.2103C98.9723 11.9932 98.5775 11.67 98.2761 11.2683C97.9747 10.8665 97.7756 10.3982 97.6957 9.90332H96.6161V12.4055H95.9559C95.735 12.4055 95.523 12.3189 95.366 12.1644C95.209 12.0098 95.1196 11.8 95.1172 11.5803L95.0994 11.5714ZM99.1143 9.2201C99.0886 9.75382 99.2744 10.2763 99.6317 10.6753C99.7994 10.8526 100.003 10.9925 100.229 11.0858C100.455 11.1791 100.699 11.2237 100.943 11.2165C101.277 11.2215 101.606 11.1388 101.898 10.9769C102.175 10.8068 102.401 10.5644 102.549 10.276C102.714 9.94836 102.796 9.58619 102.79 9.2201C102.805 8.95695 102.766 8.69356 102.677 8.44526C102.589 8.19697 102.451 7.96872 102.273 7.77381C102.102 7.5953 101.895 7.45419 101.666 7.35947C101.437 7.26476 101.191 7.21851 100.943 7.22368C100.698 7.21652 100.454 7.26194 100.227 7.35685C100.001 7.45177 99.7979 7.59397 99.6317 7.77381C99.4555 7.9712 99.3205 8.20155 99.2347 8.45139C99.1489 8.70124 99.114 8.96558 99.1321 9.22897L99.1143 9.2201ZM108.545 11.0479C108.176 11.2175 107.773 11.2966 107.367 11.2786C106.97 11.2796 106.575 11.2319 106.189 11.1367C105.821 11.0494 105.467 10.9121 105.137 10.7285L104.708 11.8376C105.109 12.0599 105.538 12.2271 105.984 12.3345C106.46 12.449 106.949 12.5056 107.438 12.5031C107.975 12.5129 108.51 12.4288 109.018 12.2547C109.433 12.1185 109.808 11.8805 110.106 11.5626C110.367 11.2791 110.51 10.9084 110.508 10.5244C110.51 10.1986 110.392 9.88313 110.178 9.63713C109.937 9.37659 109.628 9.18894 109.285 9.09588C109.593 8.97848 109.863 8.78261 110.07 8.52801C110.264 8.2964 110.368 8.00391 110.365 7.70282C110.359 7.37195 110.228 7.05534 109.999 6.81553C109.715 6.5298 109.367 6.31668 108.982 6.19442C108.509 6.04278 108.015 5.96788 107.519 5.97259C106.638 5.97914 105.77 6.17912 104.976 6.55821L105.172 7.11721C105.225 7.25279 105.327 7.3637 105.458 7.42776C105.526 7.45607 105.598 7.47065 105.672 7.47065C105.745 7.47065 105.818 7.45607 105.886 7.42776C106.367 7.25739 106.874 7.16744 107.385 7.16157C107.75 7.14513 108.114 7.21507 108.447 7.36565C108.557 7.41133 108.651 7.48742 108.719 7.58491C108.787 7.6824 108.826 7.79721 108.83 7.91577C108.832 8.02553 108.803 8.13364 108.746 8.22778C108.69 8.32191 108.607 8.39827 108.509 8.44815C108.236 8.59495 107.927 8.66258 107.617 8.64336H106.493V9.646H107.76C108.07 9.63182 108.379 9.70239 108.652 9.85008C108.753 9.90622 108.838 9.98867 108.896 10.0887C108.954 10.1887 108.984 10.3025 108.982 10.418C108.979 10.5528 108.939 10.6843 108.865 10.7973C108.79 10.9103 108.686 11.0002 108.563 11.0568L108.545 11.0479ZM119.653 10.9326C119.369 10.4068 119.228 9.81665 119.242 9.2201C119.226 8.62342 119.368 8.03298 119.653 7.50762C119.92 7.0276 120.319 6.63351 120.804 6.37188C121.325 6.10953 121.906 5.98719 122.49 6.01696C122.884 6.01226 123.275 6.08462 123.641 6.22991C123.981 6.37302 124.285 6.58799 124.533 6.85989V6.01696H126.032V12.4055H125.434C125.216 12.4032 125.008 12.3168 124.853 12.1644C124.698 12.0121 124.609 11.8058 124.604 11.5892C124.367 11.8834 124.061 12.115 123.712 12.2635C123.331 12.4207 122.921 12.4992 122.508 12.4942C121.925 12.5045 121.35 12.3639 120.839 12.0861C120.346 11.8264 119.939 11.4285 119.671 10.9415L119.653 10.9326ZM120.75 9.2201C120.738 9.48311 120.779 9.74583 120.871 9.99272C120.963 10.2396 121.104 10.4657 121.285 10.6575C121.459 10.8394 121.67 10.9825 121.904 11.0773C122.138 11.1722 122.389 11.2166 122.642 11.2076C122.895 11.2179 123.148 11.1741 123.384 11.0792C123.619 10.9843 123.832 10.8406 124.007 10.6575C124.191 10.4673 124.334 10.2417 124.428 9.99456C124.521 9.74742 124.563 9.4839 124.551 9.2201C124.563 8.95494 124.521 8.69004 124.428 8.44143C124.334 8.19282 124.191 7.96569 124.007 7.77381C123.832 7.59077 123.619 7.44701 123.384 7.35214C123.148 7.25727 122.895 7.21347 122.642 7.22368C122.389 7.21475 122.138 7.25916 121.904 7.35399C121.67 7.44883 121.459 7.59192 121.285 7.77381C121.106 7.96979 120.968 8.19949 120.879 8.44939C120.79 8.6993 120.752 8.96436 120.768 9.22897L120.75 9.2201ZM130.163 10.4534L128.851 12.37H127.245L128.762 10.2494C128.341 10.1221 127.97 9.86789 127.7 9.52178C127.446 9.16477 127.318 8.73438 127.335 8.29731C127.318 7.97365 127.38 7.65076 127.515 7.35584C127.65 7.06091 127.854 6.80257 128.111 6.60257C128.742 6.17443 129.499 5.96831 130.261 6.01696H132.358C132.58 6.01696 132.793 6.10483 132.951 6.26125C133.108 6.41767 133.196 6.62981 133.196 6.85102V12.4055H132.688C132.467 12.4055 132.255 12.3189 132.098 12.1644C131.941 12.0098 131.851 11.8 131.849 11.5803V10.4534H130.163ZM130.261 9.41531H131.849V7.29467H130.306C129.342 7.29467 128.851 7.65846 128.851 8.37717C128.851 9.09588 129.324 9.4508 130.261 9.4508V9.41531ZM47.3668 12.4055H48.0627V6.01696C48.0627 5.88047 48.1172 5.74957 48.2143 5.65306C48.3113 5.55655 48.4429 5.50233 48.5802 5.50233H51.8992C52.0273 5.50457 52.1505 5.5517 52.2471 5.63542C52.3046 5.68202 52.3518 5.74 52.3856 5.80568C52.4194 5.87136 52.4391 5.94331 52.4434 6.01696V11.5981C52.4476 11.8034 52.5232 12.001 52.6575 12.1571C52.7355 12.2421 52.8306 12.3097 52.9367 12.3556C53.0428 12.4015 53.1575 12.4245 53.2731 12.4232H53.978V6.01696C53.978 5.47571 53.7618 4.95663 53.3769 4.57391C52.9921 4.19119 52.4702 3.97618 51.9259 3.97618H48.5802C48.0359 3.97618 47.514 4.19119 47.1292 4.57391C46.7443 4.95663 46.5281 5.47571 46.5281 6.01696V11.5981C46.5305 11.8177 46.6199 12.0276 46.7769 12.1821C46.9339 12.3366 47.1459 12.4233 47.3668 12.4232V12.4055ZM116.521 9.89445V12.4055H118.02V6.90426C118.017 6.70716 117.948 6.51673 117.824 6.363C117.745 6.27179 117.648 6.19842 117.539 6.14789C117.43 6.09736 117.311 6.07086 117.19 6.0702H116.521V8.67885H114.656C114.404 8.67541 114.154 8.7232 113.92 8.81932C113.687 8.91543 113.476 9.05785 113.3 9.23785V6.01696H111.801V11.5537C111.804 11.7734 111.893 11.9832 112.05 12.1377C112.207 12.2922 112.419 12.3789 112.64 12.3789H113.3V11.0213C113.3 10.2937 113.72 9.89445 114.656 9.89445H116.521ZM70.6353 9.21123C70.613 8.77711 70.6907 8.34365 70.8623 7.94387C71.0339 7.5441 71.295 7.18853 71.6257 6.90426C72.4368 6.29918 73.4221 5.96945 74.4361 5.96372C74.9083 5.92813 75.3825 5.92813 75.8547 5.96372C76.8718 5.96691 77.8607 6.29681 78.674 6.90426C79.0035 7.18759 79.2638 7.54172 79.4354 7.93985C79.6069 8.33798 79.6853 8.7697 79.6644 9.20235C79.6861 9.63901 79.6083 10.0749 79.4368 10.4775C79.2653 10.88 79.0045 11.2388 78.674 11.5271C77.8659 12.1475 76.8755 12.4872 75.8547 12.4942V14.7125H75.2747C75.1646 14.7125 75.0556 14.6909 74.9538 14.649C74.8521 14.6071 74.7596 14.5456 74.6817 14.4682C74.6038 14.3907 74.5421 14.2988 74.4999 14.1976C74.4578 14.0964 74.4361 13.9879 74.4361 13.8784V12.512C73.4193 12.5056 72.4325 12.1691 71.6257 11.5537C71.2948 11.2619 71.034 10.8999 70.8626 10.4945C70.6911 10.0891 70.6135 9.65051 70.6353 9.21123ZM75.8547 11.2609C77.416 11.1189 78.2012 10.4357 78.2012 9.21123C78.2173 8.94653 78.1736 8.68161 78.0732 8.43593C77.9729 8.19025 77.8184 7.97006 77.6212 7.79155C77.1051 7.40973 76.4801 7.20148 75.8368 7.19706L75.8547 11.2609ZM72.1164 9.21123C72.1014 9.47684 72.1439 9.74255 72.2408 9.99049C72.3378 10.2384 72.487 10.4628 72.6784 10.6486C73.1926 11.0363 73.8177 11.2507 74.4628 11.2609V7.22368C73.8197 7.22871 73.1948 7.4369 72.6784 7.81817C72.4881 7.99542 72.3391 8.21201 72.242 8.45269C72.1449 8.69337 72.102 8.95229 72.1164 9.21123ZM74.793 5.49345H75.1142C75.3626 5.49165 75.6082 5.44049 75.8365 5.34297C76.0648 5.24545 76.2712 5.10354 76.4435 4.92558C76.7662 4.58472 76.945 4.13374 76.9432 3.66562V3.35507C76.9445 3.34074 76.9427 3.32629 76.9378 3.31275C76.9329 3.29921 76.9251 3.28691 76.9149 3.27673C76.9046 3.26656 76.8923 3.25876 76.8786 3.25389C76.865 3.24903 76.8505 3.24722 76.8361 3.24859H76.5327C76.288 3.23635 76.0433 3.27438 75.814 3.36032C75.5846 3.44625 75.3756 3.57824 75.1998 3.74807C75.024 3.91789 74.8853 4.12191 74.7923 4.34739C74.6992 4.57288 74.6539 4.81501 74.6591 5.05868V5.37811C74.6612 5.40802 74.6741 5.43617 74.6954 5.45737C74.7167 5.47857 74.745 5.49138 74.7751 5.49345H74.793Z" fill="white"/>
<path d="M35.9734 15.9635V25.7238C35.971 27.097 35.6126 28.4464 34.9327 29.6417C34.2529 30.8369 33.2746 31.8376 32.0924 32.5471L21.0648 39.1486C20.1341 39.7057 19.0685 40 17.9823 40C16.896 40 15.8304 39.7057 14.8997 39.1486L3.88106 32.5737C2.66947 31.8476 1.67226 30.8161 0.990343 29.5836C0.339524 28.4097 -0.00121798 27.0909 3.27126e-06 25.7504V6.97523C0.00412925 6.50822 0.131731 6.05051 0.369995 5.64806C0.608259 5.24561 0.948799 4.91258 1.35742 4.68242C1.76604 4.45226 2.22836 4.33307 2.69795 4.33681C3.16754 4.34056 3.62788 4.46711 4.03274 4.70375L14.9176 11.1988C15.2204 11.38 15.4385 11.6734 15.5239 12.0145C15.6092 12.3556 15.5548 12.7165 15.3726 13.0177C15.1904 13.3189 14.8953 13.5358 14.5523 13.6207C14.2093 13.7056 13.8464 13.6514 13.5436 13.4702L2.65875 6.97523V25.7504C2.65985 26.6664 2.89856 27.5666 3.35182 28.364C3.80508 29.1614 4.45754 29.829 5.24613 30.3023L16.2737 36.8771C16.7911 37.1861 17.3832 37.3493 17.9867 37.3493C18.5902 37.3493 19.1823 37.1861 19.6997 36.8771L30.7184 30.3023C31.5065 29.8273 32.158 29.1579 32.6098 28.3591C33.0633 27.5634 33.3029 26.665 33.3057 25.7504V15.9902C33.3057 15.6372 33.4467 15.2986 33.6977 15.049C33.9487 14.7994 34.2891 14.6592 34.644 14.6592C34.999 14.6592 35.3394 14.7994 35.5904 15.049C35.8413 15.2986 35.9823 15.6372 35.9823 15.9902L35.9734 15.9635ZM10.9027 25.7238H10.1532C10.0837 25.7238 10.017 25.7506 9.96704 25.7986C9.91709 25.8466 9.88787 25.9121 9.88556 25.9811V26.7353C9.88556 27.872 10.3396 28.962 11.1477 29.7657C11.9559 30.5695 13.052 31.021 14.1949 31.021H14.9711C15.0076 31.0222 15.044 31.0157 15.0778 31.002C15.1117 30.9882 15.1422 30.9675 15.1674 30.9411C15.2145 30.8905 15.2401 30.8237 15.2387 30.7548V30.0095C15.2411 29.446 15.1313 28.8877 14.9155 28.3666C14.6998 27.8456 14.3825 27.3722 13.9818 26.9738C13.5812 26.5754 13.1052 26.2598 12.5813 26.0453C12.0574 25.8307 11.496 25.7215 10.9294 25.7238H10.9027ZM17.9867 35.351C18.3393 35.351 18.6774 35.2117 18.9267 34.9638C19.176 34.7158 19.3161 34.3795 19.3161 34.0289V13.4702C19.3208 10.6022 20.4679 7.85292 22.5062 5.82411C24.5446 3.79529 27.3081 2.65226 30.192 2.64522H33.3057V5.74189C33.3034 8.60979 32.1568 11.3596 30.1177 13.3875C28.0785 15.4154 25.3136 16.5557 22.4299 16.558H21.9124C21.5574 16.558 21.217 16.6983 20.9661 16.9479C20.7151 17.1975 20.5741 17.536 20.5741 17.889C20.5741 18.242 20.7151 18.5805 20.9661 18.8301C21.217 19.0797 21.5574 19.2199 21.9124 19.2199H22.4299C26.0212 19.2129 29.4633 17.7903 32.0019 15.264C34.5406 12.7376 35.9687 9.31351 35.9734 5.74189V1.30541C35.9724 1.12913 35.9356 0.954868 35.8654 0.793009C35.7952 0.63115 35.6929 0.485006 35.5647 0.363289C35.4365 0.241572 35.285 0.146774 35.1191 0.0845455C34.9533 0.0223166 34.7765 -0.00606899 34.5994 0.00108058H30.1384C26.5572 0.0198229 23.1288 1.4466 20.6015 3.97002C18.0741 6.49344 16.6531 9.90863 16.6484 13.4702V34.0555C16.6508 34.407 16.7928 34.7432 17.0435 34.9909C17.2943 35.2386 17.6333 35.3776 17.9867 35.3776V35.351Z" fill="white"/>
</svg>
